<svg width="43" height="76" viewBox="0 0 43 76" fill="none" xmlns="http://www.w3.org/2000/svg">
<path d="M16.6274 1.74493L20.9886 5.54117L23.8502 2.56971L20.9886 0.753906L16.6274 1.74493Z" fill="url(#paint0_linear_1_2185)"/>
<path d="M22.8959 36.9007L20.9885 5.54128L23.8502 2.56982L38.0585 31.5364L42.6581 32.2796L37.3427 39.5413H29.3016L22.8959 36.9007Z" fill="url(#paint1_linear_1_2185)"/>
<path opacity="0.5" d="M22.8959 36.9005L16.3542 43.5036L0 33.4351L3.61203 30.8761L15.9668 3.22021L16.6274 1.74487L19.1312 3.92352L20.9885 5.54112L22.8959 36.9005Z" fill="url(#paint2_linear_1_2185)"/>
<path d="M29.3016 39.5412L23.7143 50.6007L16.3542 43.5037L22.8959 36.9006L29.3016 39.5412Z" fill="url(#paint3_linear_1_2185)"/>
<path d="M42.6581 32.2795L35.0249 67.2705L37.3427 39.5412L42.6581 32.2795Z" fill="url(#paint4_linear_1_2185)"/>
<path d="M29.3016 39.541L23.7142 50.6005L23.3051 75.523L29.4376 70.2418L29.3696 68.7569L35.0249 67.2704L37.3427 39.541H29.3016Z" fill="url(#paint5_linear_1_2185)"/>
<path d="M0 33.4351L9.40334 70.4065L23.305 75.523L23.7142 50.6005L16.3542 43.5035L0 33.4351Z" fill="url(#paint6_linear_1_2185)"/>
<path d="M29.4376 70.2418L29.3016 39.541L23.7142 50.6005L23.3051 75.523L29.4376 70.2418Z" fill="url(#paint7_linear_1_2185)"/>
<path d="M29.3016 39.5412L23.7143 50.6007L16.3542 43.5037L22.8959 36.9006L29.3016 39.5412Z" fill="url(#paint8_linear_1_2185)"/>
<path d="M22.8959 36.9007L3.61203 30.8762L0 33.4353L16.3542 43.5037L22.8959 36.9007Z" fill="url(#paint9_linear_1_2185)"/>
<path d="M22.8959 36.9007L34.549 35.2511L38.0585 31.5364L42.6582 32.2796L37.3427 39.5413H29.3016L22.8959 36.9007Z" fill="url(#paint10_linear_1_2185)"/>
<path d="M20.9885 5.54129L34.549 35.2511L38.0585 31.5364L23.8502 2.56982L20.9885 5.54129Z" fill="url(#paint11_linear_1_2185)"/>
<path opacity="0.15" d="M22.8959 36.9005L34.549 35.251L37.3427 39.5411H29.3016L22.8959 36.9005Z" fill="#ED2424"/>
<path d="M20.3613 4.99448L22.8959 36.9005L21.3208 5.17989L20.8859 4.81226L20.3613 4.99448Z" fill="#FF7071"/>
<path d="M21.7941 48.7513L23.3384 50.89L23.3051 75.5232L23.9695 50.8069L25.0995 47.8562L23.6116 50.3322L21.7941 48.7513Z" fill="#FF9898"/>
<path opacity="0.15" d="M9.94847 21.7156L17.7177 11.1516L19.625 20.2306L16.6274 30.7946H4.90625L9.94847 21.7156Z" fill="#5E0D0D"/>
<path opacity="0.15" d="M16.8314 4.8811L14.4122 34.26L20.3639 36.1302L19.4211 6.77843L16.8314 4.8811Z" fill="#5E0D0D"/>
<path opacity="0.15" d="M6.60962 31.784L16.4901 34.9201L19.1312 3.92032L16.6274 1.74487L6.60962 31.784Z" fill="#5E0D0D"/>
<path opacity="0.15" d="M22.8959 36.9006L20.9885 5.54121L19.1312 3.92041L18.7502 35.5947L22.8959 36.9006Z" fill="#5E0D0D"/>
<path opacity="0.15" d="M16.8994 2.56982L7.74743 32.1438L7.72306 32.2237L3.61206 30.8762L15.9669 3.22038L16.1862 3.07013L16.8994 2.56982Z" fill="#5E0D0D"/>
<path opacity="0.15" d="M3.54407 35.8552L9.40336 70.4066L12.0842 71.3977L6.63276 37.6167L3.54407 35.8552Z" fill="#5E0D0D"/>
<path opacity="0.15" d="M15.8091 72.3871L3.54407 35.8552L9.40336 70.4066L15.8091 72.3871Z" fill="#5E0D0D"/>
<path opacity="0.15" d="M23.305 75.523L9.40334 70.4065L6.96753 60.8288L4.03147 49.2866L0 33.4351L9.184 50.0234L14.0338 58.7796L15.4614 61.3562L23.305 75.523Z" fill="#5E0D0D"/>
<path opacity="0.15" d="M16.3543 43.5037L23.3051 75.5232L8.63123 70.6272L16.3543 43.5037Z" fill="#5E0D0D"/>
<path opacity="0.15" d="M11.6519 40.5322L9.40332 70.4067L15.809 72.3871L11.6519 40.5322Z" fill="#5E0D0D"/>
<path opacity="0.15" d="M0 33.4351L11.6519 40.532L15.8091 72.3869L0 33.4351Z" fill="#5E0D0D"/>
<path opacity="0.15" d="M23.6116 50.3321L11.6519 40.5322L12.0841 71.3977L23.6116 50.3321Z" fill="#5E0D0D"/>
<path opacity="0.15" d="M22.9639 61.8246L15.4615 61.3563L14.3609 61.2875L11.2248 61.0925L6.96755 60.8288L4.03149 49.2866L6.58147 49.6511L9.18403 50.0235L12.9602 50.5622L17.8537 51.2607L22.9639 61.8246Z" fill="#5E0D0D"/>
<path opacity="0.15" d="M23.237 3.27148L28.4152 36.0966L22.8958 36.9006L21.3207 5.18L23.237 3.27148Z" fill="#5E0D0D"/>
<path opacity="0.15" d="M34.549 35.2511L25.9961 36.4675L21.3207 5.18004L23.8501 2.56982L34.549 35.2511Z" fill="#5E0D0D"/>
<path opacity="0.15" d="M25.2264 5.34619L34.549 35.251L38.0584 31.5363L25.2264 5.34619Z" fill="#5E0D0D"/>
<path opacity="0.15" d="M16.3542 43.5037L22.8959 36.9006L23.7143 50.6007L16.3542 43.5037Z" fill="#5E0D0D"/>
<path opacity="0.15" d="M25.9858 41.2483L17.1263 44.3828L22.8958 36.9006L25.9858 41.2483Z" fill="#5E0D0D"/>
<path opacity="0.15" d="M23.6232 47.6852L20.9885 40.2014L22.8959 36.9006L24.8956 40.422L23.6232 47.6852Z" fill="#5E0D0D"/>
<path opacity="0.15" d="M29.3016 39.5412L25.0995 47.8562L22.8959 36.9006L29.3016 39.5412Z" fill="#5E0D0D"/>
<path opacity="0.15" d="M23.7142 50.6007L29.3016 39.5412L22.8959 36.9006L23.7142 50.6007Z" fill="#5E0D0D"/>
<path opacity="0.25" d="M22.8959 36.9006L16.3542 43.5037L23.7143 50.6007L29.3016 39.5412L22.8959 36.9006Z" fill="url(#paint12_linear_1_2185)"/>
<defs>
<linearGradient id="paint0_linear_1_2185" x1="20.0183" y1="0.020232" x2="20.7318" y2="4.47805" gradientUnits="userSpaceOnUse">
<stop stop-color="#C92C2D"/>
<stop offset="1" stop-color="#FF2222"/>
</linearGradient>
<linearGradient id="paint1_linear_1_2185" x1="32.6588" y1="36.2356" x2="30.0567" y2="1.5072" gradientUnits="userSpaceOnUse">
<stop stop-color="#CA2021"/>
<stop offset="0.5" stop-color="#FB7374"/>
<stop offset="1" stop-color="#CC2526"/>
</linearGradient>
<linearGradient id="paint2_linear_1_2185" x1="10.0721" y1="22.0624" x2="21.6096" y2="22.7121" gradientUnits="userSpaceOnUse">
<stop stop-color="#EE5E5F"/>
<stop offset="1" stop-color="#BE0000"/>
</linearGradient>
<linearGradient id="paint3_linear_1_2185" x1="16.3544" y1="43.7508" x2="29.3016" y2="43.7508" gradientUnits="userSpaceOnUse">
<stop stop-color="#EE5E5F"/>
<stop offset="1" stop-color="#E11717"/>
</linearGradient>
<linearGradient id="paint4_linear_1_2185" x1="35.0255" y1="49.7752" x2="42.6576" y2="49.7752" gradientUnits="userSpaceOnUse">
<stop stop-color="#CA2224"/>
<stop offset="1" stop-color="#F03C3E"/>
</linearGradient>
<linearGradient id="paint5_linear_1_2185" x1="23.3049" y1="57.5326" x2="37.3424" y2="57.5326" gradientUnits="userSpaceOnUse">
<stop stop-color="#CA1D1F"/>
<stop offset="1" stop-color="#F45C5E"/>
</linearGradient>
<linearGradient id="paint6_linear_1_2185" x1="0" y1="54.4792" x2="23.7138" y2="54.4792" gradientUnits="userSpaceOnUse">
<stop stop-color="#CE282A"/>
<stop offset="1" stop-color="#BC2B2D"/>
</linearGradient>
<linearGradient id="paint7_linear_1_2185" x1="31.3051" y1="58.5168" x2="19.2214" y2="56.9857" gradientUnits="userSpaceOnUse">
<stop stop-color="#C12729"/>
<stop offset="1" stop-color="#EF4344"/>
</linearGradient>
<linearGradient id="paint8_linear_1_2185" x1="24.9232" y1="34.0916" x2="19.8559" y2="45.6651" gradientUnits="userSpaceOnUse">
<stop stop-color="#D72223"/>
<stop offset="1" stop-color="#DA2E2F"/>
</linearGradient>
<linearGradient id="paint9_linear_1_2185" x1="12.1086" y1="33.4302" x2="8.71162" y2="39.185" gradientUnits="userSpaceOnUse">
<stop stop-color="#C81D1E"/>
<stop offset="1" stop-color="#FF797A"/>
</linearGradient>
<linearGradient id="paint10_linear_1_2185" x1="31.3413" y1="31.5275" x2="37.4289" y2="39.8914" gradientUnits="userSpaceOnUse">
<stop stop-color="#CA2223"/>
<stop offset="1" stop-color="#F55354"/>
</linearGradient>
<linearGradient id="paint11_linear_1_2185" x1="36.4042" y1="33.6081" x2="16.4797" y2="6.3787" gradientUnits="userSpaceOnUse">
<stop stop-color="#C61D1E"/>
<stop offset="0.5" stop-color="#ED4D4F"/>
<stop offset="1" stop-color="#CF2829"/>
</linearGradient>
<linearGradient id="paint12_linear_1_2185" x1="16.3544" y1="43.7508" x2="29.3016" y2="43.7508" gradientUnits="userSpaceOnUse">
<stop stop-color="#DF1314"/>
<stop offset="1" stop-color="#EE5E5F"/>
</linearGradient>
</defs>
</svg>
