<svg width="20" height="20" viewBox="0 0 20 20" fill="none" xmlns="http://www.w3.org/2000/svg">
<g clip-path="url(#clip0_1_1174)">
<path fill-rule="evenodd" clip-rule="evenodd" d="M8.88417 6.55169C8.6785 6.70616 8.54167 6.92765 8.54167 7.29159C8.54167 7.75182 8.16857 8.12492 7.70833 8.12492C7.2481 8.12492 6.875 7.75182 6.875 7.29159C6.875 6.40552 7.25682 5.68951 7.88337 5.21899C8.48225 4.76923 9.24725 4.58325 10 4.58325C10.8982 4.58325 11.6558 4.8534 12.203 5.37074C12.7459 5.88409 13.0038 6.56755 13.0442 7.25033C13.1236 8.58675 12.3867 10.0572 11.0384 10.8276C10.9158 10.8977 10.84 10.9551 10.7941 10.9964C10.8986 11.3238 10.7924 11.6953 10.5028 11.9144C10.1358 12.1922 9.61325 12.1198 9.3355 11.7528C9.3355 11.7528 9.33592 11.7533 9.33467 11.7517L9.33375 11.7505C9.13383 11.4816 9.05417 11.1291 9.09475 10.7987C9.1645 10.2308 9.56058 9.7525 10.2116 9.38058C11.0131 8.9225 11.4221 8.04918 11.3806 7.349C11.3607 7.01346 11.2415 6.75539 11.0579 6.58177C10.8785 6.41215 10.5601 6.24992 10 6.24992C9.49842 6.24992 9.11758 6.37644 8.88417 6.55169Z" fill="white"/>
<path d="M10 15.4167C10.6903 15.4167 11.25 14.8571 11.25 14.1667C11.25 13.4764 10.6903 12.9167 10 12.9167C9.30967 12.9167 8.75 13.4764 8.75 14.1667C8.75 14.8571 9.30967 15.4167 10 15.4167Z" fill="white"/>
<path fill-rule="evenodd" clip-rule="evenodd" d="M0.833374 9.99992C0.833374 4.93731 4.93743 0.833252 10 0.833252C15.0626 0.833252 19.1667 4.93731 19.1667 9.99992C19.1667 15.0625 15.0626 19.1666 10 19.1666C4.93743 19.1666 0.833374 15.0625 0.833374 9.99992ZM10 2.49992C5.85791 2.49992 2.50004 5.85778 2.50004 9.99992C2.50004 14.1421 5.85791 17.4999 10 17.4999C14.1422 17.4999 17.5 14.1421 17.5 9.99992C17.5 5.85778 14.1422 2.49992 10 2.49992Z" fill="white"/>
</g>
<defs>
<clipPath id="clip0_1_1174">
<rect width="20" height="20" fill="white"/>
</clipPath>
</defs>
</svg>
