<svg width="20" height="20" viewBox="0 0 20 20" fill="none" xmlns="http://www.w3.org/2000/svg">
<path d="M1.86724 18C1.70648 18 1.56034 17.9591 1.42881 17.8773C1.29728 17.7955 1.19498 17.6883 1.12191 17.5555C1.04884 17.4222 1.0085 17.2776 1.0009 17.1218C0.993307 16.9659 1.03364 16.8142 1.12191 16.6667L9.23281 2.44444C9.3205 2.2963 9.43391 2.18519 9.57303 2.11111C9.71216 2.03704 9.8545 2 10.0001 2C10.1462 2 10.2888 2.03704 10.428 2.11111C10.5671 2.18519 10.6802 2.2963 10.7673 2.44444L18.8782 16.6667C18.9659 16.8148 19.0062 16.9668 18.9992 17.1227C18.9922 17.2785 18.9519 17.4228 18.8782 17.5555C18.8051 17.6889 18.7028 17.7964 18.5713 17.8782C18.4398 17.96 18.2936 18.0006 18.1329 18H1.86724ZM3.37981 16.2222H16.6203L10.0001 4.66667L3.37981 16.2222ZM10.0001 15.3333C10.2485 15.3333 10.4569 15.248 10.6253 15.0773C10.7936 14.9067 10.8775 14.6957 10.8769 14.4444C10.8769 14.1926 10.7927 13.9813 10.6244 13.8107C10.456 13.64 10.2479 13.555 10.0001 13.5556C9.75162 13.5556 9.54322 13.6409 9.37486 13.8116C9.20651 13.9822 9.12262 14.1932 9.12321 14.4444C9.12321 14.6963 9.20739 14.9075 9.37574 15.0782C9.5441 15.2489 9.7522 15.3339 10.0001 15.3333ZM10.0001 12.6667C10.2485 12.6667 10.4569 12.5813 10.6253 12.4107C10.7936 12.24 10.8775 12.029 10.8769 11.7778V9.11111C10.8769 8.85926 10.7927 8.648 10.6244 8.47733C10.456 8.30666 10.2479 8.22163 10.0001 8.22222C9.75162 8.22222 9.54322 8.30755 9.37486 8.47822C9.20651 8.64889 9.12262 8.85985 9.12321 9.11111V11.7778C9.12321 12.0296 9.20739 12.2409 9.37574 12.4116C9.5441 12.5822 9.7522 12.6673 10.0001 12.6667Z" fill="white"/>
</svg>
