<svg xmlns:xlink="http://www.w3.org/1999/xlink" xmlns="http://www.w3.org/2000/svg" width="1000" height="1000" viewBox="0 0 330 330" style="transform: rotate(18deg);"><defs><radialGradient id="grad1" cx="50%" cy="50%" r="50%" fx="50%" fy="50%"><stop offset="0%" style="stop-color: rgb(28, 34, 58); stop-opacity: 1;"></stop><stop offset="100%" style="stop-color: rgb(15, 18, 33); stop-opacity: 1;"></stop></radialGradient><radialGradient id="grad1" cx="50%" cy="50%" r="50%" fx="50%" fy="50%"><stop offset="0%" style="stop-color: rgb(28, 34, 58); stop-opacity: 1;"></stop><stop offset="100%" style="stop-color: rgb(15, 18, 33); stop-opacity: 1;"></stop></radialGradient></defs><g transform="translate(15, 15)"><path d="M 150 150 L 238.16778784387097 28.64745084375788 A 150 150 0 0 0 150 0 Z" fill="#201C40"></path><path d="M 150 150 L 292.658477444273 103.6474508437579 A 150 150 0 0 0 238.16778784387097 28.64745084375788 Z" fill="#0F121D"></path><path d="M 150 150 L 292.658477444273 196.3525491562421 A 150 150 0 0 0 292.658477444273 103.6474508437579 Z" fill="#201C40"></path><path d="M 150 150 L 238.16778784387097 271.3525491562421 A 150 150 0 0 0 292.658477444273 196.3525491562421 Z" fill="#0F121D"></path><path d="M 150 150 L 150 300 A 150 150 0 0 0 238.16778784387097 271.3525491562421 Z" fill="#201C40"></path><path d="M 150 150 L 61.832212156129046 271.3525491562421 A 150 150 0 0 0 150 300 Z" fill="#0F121D"></path><path d="M 150 150 L 7.341522555726982 196.35254915624213 A 150 150 0 0 0 61.832212156129046 271.3525491562421 Z" fill="#201C40"></path><path d="M 150 150 L 7.341522555726982 103.64745084375784 A 150 150 0 0 0 7.341522555726982 196.35254915624213 Z" fill="#0F121D"></path><path d="M 150 150 L 61.83221215612902 28.647450843757895 A 150 150 0 0 0 7.341522555726982 103.64745084375784 Z" fill="#201C40"></path><path d="M 150 150 L 149.99999999999997 0 A 150 150 0 0 0 61.83221215612902 28.647450843757895 Z" fill="#0F121D"></path><path d="M 150 150 L 200.25563907100644 80.82904698094201 A 85.49999999999999 85.49999999999999 0 0 0 150 64.50000000000001 Z" fill="#151232"></path><path d="M 150 150 L 231.3153321432356 123.579046980942 A 85.49999999999999 85.49999999999999 0 0 0 200.25563907100644 80.82904698094201 Z" fill="#0B0E18"></path><path d="M 150 150 L 231.3153321432356 176.420953019058 A 85.49999999999999 85.49999999999999 0 0 0 231.3153321432356 123.579046980942 Z" fill="#151232"></path><path d="M 150 150 L 200.25563907100644 219.170953019058 A 85.49999999999999 85.49999999999999 0 0 0 231.3153321432356 176.420953019058 Z" fill="#0B0E18"></path><path d="M 150 150 L 150 235.5 A 85.49999999999999 85.49999999999999 0 0 0 200.25563907100644 219.170953019058 Z" fill="#151232"></path><path d="M 150 150 L 99.74436092899356 219.170953019058 A 85.49999999999999 85.49999999999999 0 0 0 150 235.5 Z" fill="#0B0E18"></path><path d="M 150 150 L 68.68466785676439 176.420953019058 A 85.49999999999999 85.49999999999999 0 0 0 99.74436092899356 219.170953019058 Z" fill="#151232"></path><path d="M 150 150 L 68.68466785676439 123.57904698094197 A 85.49999999999999 85.49999999999999 0 0 0 68.68466785676439 176.420953019058 Z" fill="#0B0E18"></path><path d="M 150 150 L 99.74436092899354 80.82904698094201 A 85.49999999999999 85.49999999999999 0 0 0 68.68466785676439 123.57904698094197 Z" fill="#151232"></path><path d="M 150 150 L 149.99999999999997 64.50000000000001 A 85.49999999999999 85.49999999999999 0 0 0 99.74436092899354 80.82904698094201 Z" fill="#0B0E18"></path><circle cx="150" cy="150" r="75" fill="url(&quot;#grad1&quot;)" stroke="#201C40" stroke-width="4px"></circle><circle cx="150" cy="150" r="150" fill="none" stroke="#131624" stroke-width="4px"></circle></g></svg>