<svg width="12" height="12" viewBox="0 0 12 12" fill="none" xmlns="http://www.w3.org/2000/svg">
<path d="M9.47654 6.82203C9.32733 6.87253 9.26621 6.92304 8.78085 7.40645L8.28471 7.90428L8.34583 8.02333C8.50042 8.32456 8.50042 8.65465 8.34762 8.96309C8.27033 9.12002 8.07798 9.31302 7.92158 9.39058C7.69868 9.50241 7.6807 9.50422 6.6992 9.50422H5.80577L5.76802 9.46273C5.71409 9.40501 5.71589 9.3058 5.76982 9.2553C5.81116 9.21562 5.81476 9.21562 6.64886 9.21562C7.13782 9.21562 7.52611 9.2084 7.58183 9.19758C8.03843 9.111 8.2865 8.6312 8.10135 8.19469C8.05281 8.08286 7.89642 7.92232 7.77598 7.86099C7.72025 7.83394 7.62318 7.80147 7.56026 7.79065C7.47937 7.77622 6.95805 7.77261 5.82734 7.77802C4.3425 7.78343 4.19869 7.78704 4.08364 7.8159C3.81939 7.88444 3.57491 8.02694 3.34302 8.247L3.20999 8.37506L4.20408 9.37254L5.19817 10.3718L6.57336 10.3664C7.93417 10.3592 7.95035 10.3592 8.09236 10.3195C8.34942 10.2474 8.58671 10.1013 8.76647 9.90826C8.85995 9.80725 8.90489 9.74412 9.6545 8.66006C9.9583 8.21994 10.2261 7.8177 10.2495 7.7672C10.4149 7.40645 10.2801 7.01323 9.94033 6.8581C9.81988 6.80219 9.58979 6.78415 9.47654 6.82203Z" fill="#00ACE7"/>
<path d="M2.16723 8.81747C1.7941 9.19457 1.67999 9.31845 1.67999 9.35306C1.67999 9.38768 1.94263 9.66276 2.88269 10.6082C3.96946 11.7013 4.09082 11.8179 4.14335 11.8179C4.19406 11.8179 4.25383 11.765 4.67224 11.3424C5.09246 10.9216 5.14499 10.8615 5.14499 10.8105C5.14499 10.7576 5.02907 10.6356 3.95135 9.55345C3.11635 8.71363 2.74141 8.34929 2.70699 8.34018C2.65809 8.32925 2.62549 8.35657 2.16723 8.81747Z" fill="#00ACE7"/>
<circle cx="6.24" cy="3.6" r="2.6" stroke="#00ACE7" stroke-width="2"/>
<circle cx="6.24" cy="3.59995" r="2.4" fill="#00ACE7"/>
<path d="M6.34531 4.79994C6.16532 4.79994 6.00821 4.74789 5.87337 4.64524C5.73853 4.54259 5.64041 4.40524 5.57841 4.23536C5.51701 4.06548 5.50377 3.88187 5.53988 3.68452L5.89444 1.69946C5.90467 1.62862 5.93417 1.56789 5.98293 1.51657C6.03168 1.46597 6.09489 1.43994 6.17194 1.43994C6.23093 1.43994 6.28391 1.45874 6.32966 1.4956C6.37601 1.53247 6.40911 1.58018 6.42958 1.63874C6.45005 1.69729 6.45366 1.75874 6.44102 1.8238L6.31762 2.51343H6.46389L6.28692 2.60596C6.31762 2.5503 6.35855 2.50115 6.41032 2.45777C6.46149 2.4144 6.51807 2.38259 6.58007 2.3609C6.64147 2.33922 6.70708 2.32837 6.77631 2.32837C6.92018 2.32837 7.04719 2.38187 7.15795 2.48813C7.26811 2.5944 7.34878 2.73536 7.39874 2.91175C7.4487 3.08741 7.45351 3.27102 7.41198 3.46259L7.31928 3.96211C7.28557 4.12837 7.22296 4.27512 7.13026 4.40163C7.03756 4.52813 6.92439 4.62573 6.78895 4.69512C6.65411 4.76452 6.50603 4.79922 6.3441 4.79922L6.34531 4.79994ZM6.38383 4.2397C6.44824 4.2397 6.50724 4.2238 6.56081 4.19127C6.61438 4.15874 6.66134 4.11319 6.70167 4.05464C6.7414 3.99609 6.76788 3.92813 6.78052 3.85078L6.8654 3.365C6.88105 3.27536 6.87744 3.1944 6.85577 3.12211C6.8341 3.04982 6.79858 2.99199 6.74982 2.94862C6.70106 2.90524 6.64207 2.88355 6.57285 2.88355C6.51145 2.88355 6.45366 2.90018 6.39948 2.93416C6.34531 2.96813 6.29956 3.0144 6.26103 3.07295C6.22251 3.13151 6.19662 3.19946 6.18398 3.27681L6.0991 3.76259C6.08345 3.84934 6.08586 3.92886 6.10513 4.00331C6.12439 4.07705 6.1587 4.13488 6.20746 4.17681C6.25621 4.21874 6.31521 4.23898 6.38443 4.23898L6.38383 4.2397Z" fill="#0F121D"/>
<path d="M5.0693 4.80522C5.23128 4.96249 5.41543 5.07844 5.61504 5.15554C5.81398 5.23264 6.02636 5.27026 6.23941 5.27088C6.45247 5.27088 6.66485 5.23325 6.86379 5.15554C7.0634 5.07844 7.24756 4.96249 7.40953 4.80522C7.41625 4.79843 7.42701 4.79843 7.4344 4.8046C7.43977 4.80892 7.44112 4.8157 7.4391 4.82125C7.35845 5.03219 7.18169 5.21352 6.96662 5.33502C6.75088 5.45714 6.49481 5.52005 6.24009 5.52005C5.98536 5.52005 5.7293 5.45714 5.51356 5.33502C5.29849 5.21413 5.12173 5.0328 5.04108 4.82125C5.03772 4.81323 5.04242 4.80398 5.05183 4.8009C5.05855 4.79905 5.06594 4.8009 5.06998 4.80522H5.0693Z" fill="#0F121D"/>
</svg>
