<svg width="13" height="12" viewBox="0 0 13 12" fill="none" xmlns="http://www.w3.org/2000/svg">
<path d="M9.89301 6.82203C9.74381 6.87253 9.68269 6.92304 9.19733 7.40645L8.70118 7.90428L8.7623 8.02333C8.9169 8.32456 8.9169 8.65465 8.7641 8.96309C8.6868 9.12002 8.49445 9.31302 8.33806 9.39058C8.11515 9.50241 8.09718 9.50422 7.11567 9.50422H6.22225L6.1845 9.46273C6.13057 9.40501 6.13236 9.3058 6.18629 9.2553C6.22764 9.21562 6.23123 9.21562 7.06533 9.21562C7.55429 9.21562 7.94258 9.2084 7.99831 9.19758C8.4549 9.111 8.70298 8.6312 8.51782 8.19469C8.46929 8.08286 8.31289 7.92232 8.19245 7.86099C8.13672 7.83394 8.03965 7.80147 7.97673 7.79065C7.89584 7.77622 7.37453 7.77261 6.24382 7.77802C4.75897 7.78343 4.61516 7.78704 4.50011 7.8159C4.23586 7.88444 3.99138 8.02694 3.75949 8.247L3.62646 8.37506L4.62056 9.37254L5.61465 10.3718L6.98983 10.3664C8.35064 10.3592 8.36682 10.3592 8.50883 10.3195C8.76589 10.2474 9.00318 10.1013 9.18295 9.90826C9.27642 9.80725 9.32136 9.74412 10.071 8.66006C10.3748 8.21994 10.6426 7.8177 10.666 7.7672C10.8314 7.40645 10.6966 7.01323 10.3568 6.8581C10.2364 6.80219 10.0063 6.78415 9.89301 6.82203Z" fill="#FFC800"/>
<path d="M2.58367 8.81747C2.21055 9.19457 2.09644 9.31845 2.09644 9.35306C2.09644 9.38768 2.35907 9.66276 3.29913 10.6082C4.38591 11.7013 4.50726 11.8179 4.55979 11.8179C4.61051 11.8179 4.67028 11.765 5.08869 11.3424C5.5089 10.9216 5.56143 10.8615 5.56143 10.8105C5.56143 10.7576 5.44551 10.6356 4.36779 9.55345C3.53279 8.71363 3.15785 8.34929 3.12344 8.34018C3.07453 8.32925 3.04193 8.35657 2.58367 8.81747Z" fill="#FFC800"/>
<circle cx="6.6564" cy="3.6" r="2.6" stroke="#FFC800" stroke-width="2"/>
<circle cx="6.65659" cy="3.59995" r="2.4" fill="#FFC800"/>
<path d="M6.76183 4.79994C6.58184 4.79994 6.42473 4.74789 6.28989 4.64524C6.15505 4.54259 6.05693 4.40524 5.99493 4.23536C5.93353 4.06548 5.92029 3.88187 5.9564 3.68452L6.31096 1.69946C6.32119 1.62862 6.35069 1.56789 6.39945 1.51657C6.4482 1.46597 6.51141 1.43994 6.58846 1.43994C6.64745 1.43994 6.70043 1.45874 6.74617 1.4956C6.79253 1.53247 6.82563 1.58018 6.8461 1.63874C6.86657 1.69729 6.87018 1.75874 6.85754 1.8238L6.73414 2.51343H6.88041L6.70343 2.60596C6.73413 2.5503 6.77507 2.50115 6.82684 2.45777C6.87801 2.4144 6.93459 2.38259 6.99659 2.3609C7.05799 2.33922 7.1236 2.32837 7.19283 2.32837C7.3367 2.32837 7.46371 2.38187 7.57447 2.48813C7.68463 2.5944 7.76529 2.73536 7.81526 2.91175C7.86522 3.08741 7.87003 3.27102 7.8285 3.46259L7.7358 3.96211C7.70209 4.12837 7.63948 4.27512 7.54678 4.40163C7.45408 4.52813 7.34091 4.62573 7.20547 4.69512C7.07063 4.76452 6.92255 4.79922 6.76062 4.79922L6.76183 4.79994ZM6.80035 4.2397C6.86476 4.2397 6.92375 4.2238 6.97733 4.19127C7.0309 4.15874 7.07785 4.11319 7.11819 4.05464C7.15792 3.99609 7.1844 3.92813 7.19704 3.85078L7.28192 3.365C7.29757 3.27536 7.29396 3.1944 7.27229 3.12211C7.25062 3.04982 7.2151 2.99199 7.16634 2.94862C7.11758 2.90524 7.05859 2.88355 6.98937 2.88355C6.92797 2.88355 6.87018 2.90018 6.816 2.93416C6.76182 2.96813 6.71608 3.0144 6.67755 3.07295C6.63903 3.13151 6.61314 3.19946 6.6005 3.27681L6.51562 3.76259C6.49997 3.84934 6.50238 3.92886 6.52164 4.00331C6.54091 4.07705 6.57522 4.13488 6.62398 4.17681C6.67273 4.21874 6.73173 4.23898 6.80095 4.23898L6.80035 4.2397Z" fill="#0F121D"/>
<path d="M5.48585 4.80522C5.64783 4.96249 5.83198 5.07844 6.03159 5.15554C6.23053 5.23264 6.44291 5.27026 6.65596 5.27088C6.86902 5.27088 7.0814 5.23325 7.28034 5.15554C7.47995 5.07844 7.66411 4.96249 7.82608 4.80522C7.8328 4.79843 7.84355 4.79843 7.85095 4.8046C7.85632 4.80892 7.85767 4.8157 7.85565 4.82125C7.775 5.03219 7.59824 5.21352 7.38317 5.33502C7.16743 5.45714 6.91136 5.52005 6.65664 5.52005C6.40191 5.52005 6.14585 5.45714 5.93011 5.33502C5.71504 5.21413 5.53828 5.0328 5.45763 4.82125C5.45427 4.81323 5.45897 4.80398 5.46838 4.8009C5.4751 4.79905 5.48249 4.8009 5.48653 4.80522H5.48585Z" fill="#0F121D"/>
</svg>
