<svg width="14" height="12" viewBox="0 0 14 12" fill="none" xmlns="http://www.w3.org/2000/svg">
<path d="M4.01725 1.67167C3.6827 1.71522 3.32861 1.87005 3.05266 2.09505C2.53252 2.51844 2.27366 3.2128 2.38844 3.86844C2.50321 4.51925 2.94277 5.06844 3.5435 5.31038C3.62165 5.34183 3.68514 5.36602 3.68758 5.3636C3.69247 5.36118 3.67049 5.27167 3.64363 5.16522C3.57281 4.87731 3.55571 4.31602 3.61188 3.98941C3.72177 3.32893 4.03435 2.73618 4.51786 2.26925C4.62531 2.16764 4.79625 2.02489 4.90126 1.94989L5.09173 1.81683L4.89882 1.75635C4.70346 1.69586 4.38844 1.64264 4.25169 1.64747C4.20773 1.64989 4.10272 1.65957 4.01725 1.67167Z" fill="#FFC800"/>
<path d="M8.8622 1.66935C8.78161 1.68144 8.62532 1.72015 8.51299 1.75402L8.3103 1.81693L8.51055 1.95725C9.19431 2.44112 9.6534 3.17177 9.79016 3.98951C9.85853 4.38628 9.82434 4.97419 9.71445 5.32741C9.70224 5.36612 9.70957 5.36612 9.80237 5.33467C10.237 5.18225 10.6253 4.82902 10.8402 4.39112C10.9892 4.08628 11.0331 3.89273 11.0331 3.55644C11.0331 3.21532 10.9867 3.01693 10.8402 2.72177C10.596 2.22822 10.1882 1.88709 9.6534 1.73225C9.41653 1.66451 9.07709 1.6379 8.8622 1.66935Z" fill="#FFC800"/>
<path d="M6.23712 2.21602C5.62662 2.34424 5.10159 2.69747 4.75726 3.21037C4.35433 3.80553 4.26154 4.57005 4.50329 5.25957C4.67179 5.74102 5.05519 6.20795 5.49963 6.4644C5.92454 6.70876 6.21025 6.78618 6.71331 6.78376C7.11624 6.78134 7.2945 6.74747 7.62662 6.60715C8.77191 6.12569 9.33358 4.78779 8.87204 3.63618C8.74994 3.32892 8.61074 3.12569 8.33724 2.85473C7.98315 2.50392 7.64127 2.31763 7.18217 2.22328C6.91355 2.17005 6.47399 2.16521 6.23712 2.21602Z" fill="#FFC800"/>
<path d="M2.7083 5.94667C2.2663 6.07732 1.88291 6.39909 1.6851 6.8007C1.54347 7.09587 1.49951 7.31119 1.49951 7.73458C1.49951 8.21603 1.5801 8.49425 1.77302 8.68538C1.90733 8.82087 2.01477 8.85474 2.30781 8.85474H2.56667L2.61795 8.65151C2.74249 8.14345 2.9696 7.74183 3.34322 7.36683C3.66313 7.04264 3.93175 6.86603 4.36642 6.69183L4.45922 6.65312L4.33956 6.51522C4.27363 6.4378 4.19548 6.34103 4.16618 6.2999C4.12222 6.23699 4.09292 6.22248 3.98547 6.21038C3.83162 6.19103 3.5801 6.10877 3.35055 6.00232C3.14298 5.90312 2.92076 5.88377 2.7083 5.94667Z" fill="#FFC800"/>
<path d="M10.2346 5.92974C10.1857 5.94183 10.0856 5.98054 10.0148 6.01441C9.83654 6.10635 9.57036 6.19103 9.41652 6.21038C9.30907 6.22248 9.27977 6.23699 9.23581 6.2999C9.20651 6.34103 9.12836 6.4378 9.06243 6.5128C8.95742 6.63619 8.94765 6.65554 8.98917 6.67006C9.37745 6.80796 9.74375 7.04748 10.0588 7.36683C10.4299 7.73941 10.6595 8.14828 10.784 8.65151L10.8353 8.85474H11.0893C11.4556 8.85474 11.6143 8.7749 11.7511 8.51845C11.8658 8.31038 11.9025 8.11925 11.9025 7.73458C11.9025 7.31119 11.8585 7.09587 11.7169 6.8007C11.4336 6.22006 10.7376 5.81119 10.2346 5.92974Z" fill="#FFC800"/>
<path d="M4.83292 7.36931C4.61802 7.42011 4.26393 7.60398 4.07345 7.76124C3.75844 8.02495 3.51912 8.38302 3.39946 8.77011C3.3262 9.00721 3.30422 9.90237 3.36527 10.1395C3.46295 10.5145 3.63634 10.7564 3.88786 10.8701L4.00264 10.9233H6.70105H9.39946L9.51424 10.8701C9.69006 10.7903 9.83414 10.6451 9.91961 10.4588C10.0612 10.154 10.0759 10.0427 10.0661 9.46205C10.0564 8.97092 10.0515 8.92737 9.98798 8.73382C9.9074 8.49189 9.79262 8.27173 9.64122 8.07818C9.25294 7.57979 8.55941 7.25318 8.09299 7.35237C8.01973 7.36931 7.84146 7.43463 7.69739 7.49995C7.33597 7.66689 7.082 7.72495 6.71326 7.72737C6.31277 7.72737 6.0295 7.66205 5.66808 7.48302C5.36283 7.33302 5.12596 7.29915 4.83292 7.36931Z" fill="#FFC800"/>
<path d="M7.59277 9.84001H8.56176V9.04001L8.07727 8.64001L7.59277 9.04001V9.84001Z" fill="#0F121D" stroke="#0F121D"/>
</svg>
