<svg width="14" height="12" viewBox="0 0 14 12" fill="none" xmlns="http://www.w3.org/2000/svg">
<g clip-path="url(#clip0_1_1234)">
<path d="M7.018 2.69496C6.78468 2.75735 6.61931 2.93338 6.56948 3.16734C6.50152 3.49265 6.72125 3.82019 7.05198 3.88927C7.13353 3.90486 8.01698 3.91155 9.87677 3.90709C12.5815 3.90041 12.5838 3.90041 12.688 3.85362C12.919 3.74889 13.0572 3.53499 13.0549 3.28766C13.0549 3.04033 12.9326 2.84425 12.7129 2.7373L12.5838 2.67491L9.85411 2.67045C7.70211 2.66822 7.10181 2.67268 7.018 2.69496Z" fill="#FFC800"/>
<path d="M4.68327 3.93607C4.11696 3.994 3.5076 4.21905 3.03416 4.55105C2.79631 4.71593 2.40895 5.09695 2.24132 5.32868C1.49151 6.37147 1.39411 7.74403 1.98987 8.85812C2.41121 9.64244 3.08853 10.2129 3.92441 10.4914C5.54634 11.0328 7.30872 10.3332 8.09024 8.83807C8.67467 7.71952 8.57274 6.36256 7.82746 5.32868C7.65983 5.09695 7.27247 4.71593 7.03462 4.55105C6.35051 4.07421 5.50557 3.85362 4.68327 3.93607ZM5.52595 4.75604C6.77865 4.99668 7.6621 6.04838 7.6621 7.29839C7.6621 8.49047 6.85793 9.50652 5.67093 9.80956C5.40136 9.87863 4.94831 9.90091 4.67195 9.86303C3.36262 9.67364 2.40668 8.59297 2.40668 7.29839C2.40668 6.05507 3.28334 5.00559 4.52471 4.75827C4.80786 4.70256 5.23826 4.70033 5.52595 4.75604Z" fill="#FFC800"/>
<path d="M4.75125 5.09469C4.00144 5.18827 3.33772 5.65842 3.00699 6.3291C2.57659 7.19809 2.76008 8.21192 3.46684 8.88483C3.85647 9.25693 4.26875 9.44633 4.81014 9.50426C5.45801 9.57556 6.10588 9.35274 6.59064 8.89597C7.52167 8.01584 7.52846 6.59425 6.60197 5.71189C6.22141 5.3487 5.81139 5.15708 5.28359 5.09246C5.06612 5.06795 4.97551 5.06795 4.75125 5.09469Z" fill="#FFC800"/>
<path d="M4.95692 8.26452C4.82144 8.26452 4.70318 8.22929 4.60168 8.1598C4.50018 8.09031 4.42633 7.99733 4.37966 7.88233C4.33344 7.76733 4.32347 7.64304 4.35066 7.50944L4.61754 6.16567C4.62524 6.11771 4.64745 6.07661 4.68415 6.04186C4.72085 6.00761 4.76843 5.98999 4.82643 5.98999C4.87083 5.98999 4.91071 6.00271 4.94514 6.02767C4.98003 6.05263 5.00495 6.08493 5.02036 6.12456C5.03576 6.1642 5.03848 6.2058 5.02897 6.24984L4.93608 6.71668H5.04618L4.91297 6.77932C4.93608 6.74164 4.96689 6.70837 5.00586 6.679C5.04437 6.64964 5.08696 6.62811 5.13364 6.61343C5.17985 6.59875 5.22924 6.59141 5.28135 6.59141C5.38964 6.59141 5.48525 6.62762 5.56863 6.69956C5.65155 6.77149 5.71226 6.86692 5.74987 6.98632C5.78748 7.10523 5.7911 7.22953 5.75984 7.35921L5.69006 7.69735C5.66469 7.80991 5.61756 7.90925 5.54778 7.99488C5.478 8.08052 5.39282 8.14658 5.29087 8.19356C5.18937 8.24054 5.0779 8.26403 4.95602 8.26403L4.95692 8.26452ZM4.98592 7.88527C5.03441 7.88527 5.07881 7.8745 5.11914 7.85248C5.15947 7.83046 5.19481 7.79963 5.22517 7.75999C5.25507 7.72035 5.27501 7.67435 5.28452 7.62199L5.34841 7.29315C5.36019 7.23247 5.35747 7.17766 5.34116 7.12872C5.32485 7.07979 5.29812 7.04064 5.26141 7.01128C5.22471 6.98192 5.18031 6.96723 5.1282 6.96723C5.08198 6.96723 5.03848 6.97849 4.9977 7.00149C4.95692 7.02449 4.92249 7.05581 4.89349 7.09545C4.86449 7.13508 4.845 7.18108 4.83549 7.23344L4.7716 7.56229C4.75982 7.62101 4.76163 7.67484 4.77613 7.72525C4.79063 7.77516 4.81646 7.81431 4.85316 7.84269C4.88986 7.87108 4.93427 7.88478 4.98637 7.88478L4.98592 7.88527Z" fill="#0F121D"/>
<path d="M4.06781 8.26861C4.18486 8.39282 4.31793 8.48439 4.46217 8.54528C4.60593 8.60617 4.7594 8.63588 4.91336 8.63637C5.06731 8.63637 5.22079 8.60666 5.36454 8.54528C5.50879 8.48439 5.64186 8.39282 5.75891 8.26861C5.76376 8.26325 5.77153 8.26325 5.77688 8.26812C5.78076 8.27153 5.78173 8.27689 5.78028 8.28127C5.722 8.44786 5.59426 8.59107 5.43885 8.68703C5.28295 8.78347 5.09791 8.83316 4.91384 8.83316C4.72978 8.83316 4.54474 8.78347 4.38884 8.68703C4.23342 8.59156 4.10569 8.44835 4.04741 8.28127C4.04499 8.27494 4.04838 8.26763 4.05518 8.2652C4.06004 8.26374 4.06538 8.2652 4.0683 8.26861H4.06781Z" fill="#0F121D"/>
<path d="M7.64994 4.37067C7.97614 4.62914 8.30234 4.99011 8.53113 5.35107L8.6376 5.51819L10.067 5.5115C11.4692 5.50482 11.4986 5.50482 11.6006 5.45803C11.8316 5.3533 11.9698 5.1394 11.9675 4.89207C11.9675 4.64474 11.8452 4.44866 11.6255 4.34171L11.4964 4.27932L9.50746 4.27263L7.51855 4.26595L7.64994 4.37067Z" fill="#FFC800"/>
<path d="M8.81895 5.90362C8.9458 6.22894 9.04774 6.64115 9.07492 6.94864L9.09078 7.12244L11.0185 7.11575C12.9281 7.10907 12.9463 7.10907 13.0505 7.06228C13.2815 6.95755 13.4197 6.74365 13.4197 6.49632C13.4197 6.24676 13.2996 6.05514 13.0754 5.94596L12.9463 5.88357L10.8758 5.87688C9.06586 5.87243 8.80762 5.87465 8.81895 5.90362Z" fill="#FFC800"/>
<path d="M9.07492 7.64827C9.04774 7.95576 8.9458 8.36797 8.81895 8.69329C8.80762 8.72225 9.06586 8.72448 10.8758 8.72002C12.9327 8.71334 12.9463 8.71334 13.0505 8.66655C13.2815 8.56182 13.4197 8.34792 13.4197 8.10059C13.4197 7.85103 13.2996 7.65941 13.0754 7.55023L12.9463 7.48784L11.0185 7.48116L9.09078 7.47447L9.07492 7.64827Z" fill="#FFC800"/>
<path d="M8.50401 9.28595C8.25936 9.65805 7.96261 9.98114 7.63415 10.2374L7.51636 10.3287L10.2301 10.3243C12.9439 10.3176 12.9462 10.3176 13.0504 10.2708C13.2815 10.1661 13.4196 9.95217 13.4196 9.70484C13.4196 9.45529 13.2996 9.26366 13.0753 9.15448L12.9462 9.09209L10.7919 9.08541L8.63766 9.08095L8.50401 9.28595Z" fill="#FFC800"/>
<path d="M0.0558957 3.92539L1.16744 4.21507C1.19674 4.22115 1.21994 4.24436 1.22693 4.27318L1.51973 5.36653C1.5278 5.39893 1.5565 5.4213 1.58987 5.4213C1.62343 5.4213 1.65192 5.39893 1.6598 5.36653L1.95282 4.27318C1.95899 4.24436 1.983 4.22115 2.01211 4.21507L3.12388 3.92539C3.15638 3.9187 3.17953 3.88986 3.17953 3.85724C3.17953 3.82463 3.15638 3.79664 3.12388 3.78995L2.01211 3.49982C1.983 3.49355 1.95899 3.471 1.95282 3.44213L1.6598 2.34817C1.65192 2.31638 1.62346 2.29382 1.58987 2.29382C1.55653 2.29382 1.52783 2.31638 1.51973 2.34817L1.22693 3.44216C1.21991 3.471 1.19674 3.49355 1.16744 3.49984L0.0558957 3.78998C0.0227413 3.79666 0 3.82466 0 3.85727C0 3.88985 0.0227413 3.91873 0.0558957 3.92539Z" fill="#FFC800"/>
</g>
<defs>
<clipPath id="clip0_1_1234">
<rect width="13.5" height="12" fill="white"/>
</clipPath>
</defs>
</svg>
