<svg width="16" height="17" viewBox="0 0 16 17" fill="none" xmlns="http://www.w3.org/2000/svg">
<path fill-rule="evenodd" clip-rule="evenodd" d="M5.95122 16.5H9.04914L10.5538 10.6582C10.6128 10.5402 10.6955 10.1803 10.5538 9.68459C10.4122 9.18893 8.66559 3.45926 7.80997 0.65639C7.72146 0.538374 7.47363 0.373152 7.19039 0.65639L4.62355 9.33061C4.50553 9.59614 4.34031 10.3573 4.62355 11.2779C4.90679 12.1984 5.62668 15.1428 5.95122 16.5ZM1.26011 9.68465L6.3938 0.921987C5.74471 3.07577 4.35803 7.66658 4.00398 8.79953C3.64994 9.93249 3.67944 10.6288 3.73845 10.8353L5.24315 16.4115C4.67667 16.4824 4.18101 16.087 4.00398 15.8805C3.17787 14.3463 1.47254 11.1894 1.26011 10.8353C1.04769 10.4813 1.1716 9.92068 1.26011 9.68465ZM13.7403 9.68465L8.6066 0.921987C9.25568 3.07577 10.6424 7.66658 10.9964 8.79953C11.3505 9.93249 11.321 10.6288 11.2619 10.8353L9.75725 16.4115C10.3237 16.4824 10.8194 16.087 10.9964 15.8805C11.8225 14.3463 13.5279 11.1894 13.7403 10.8353C13.9527 10.4813 13.8288 9.92068 13.7403 9.68465Z" fill="#00ACE7"/>
<path d="M7.33114 12.0819C6.92041 12.0819 6.56186 11.9733 6.25415 11.7591C5.94644 11.545 5.72253 11.2584 5.58104 10.9039C5.44092 10.5495 5.4107 10.1664 5.49312 9.75462L6.30224 5.61288C6.32559 5.46507 6.3929 5.33838 6.50417 5.23129C6.61544 5.12571 6.75968 5.07141 6.93552 5.07141C7.07014 5.07141 7.19102 5.11062 7.29543 5.18755C7.4012 5.26447 7.47675 5.36402 7.52346 5.48619C7.57016 5.60836 7.57841 5.73656 7.54956 5.87231L7.26795 7.3112H7.60176L7.19789 7.50426C7.26795 7.38813 7.36137 7.28557 7.47951 7.19507C7.59627 7.10457 7.72539 7.03821 7.86689 6.99296C8.007 6.94771 8.15674 6.92508 8.31472 6.92508C8.64303 6.92508 8.93289 7.0367 9.18565 7.25842C9.43704 7.48014 9.62112 7.77425 9.73514 8.14227C9.84915 8.50878 9.86014 8.89188 9.76535 9.29158L9.55381 10.3338C9.47688 10.6807 9.33401 10.9869 9.12246 11.2508C8.91091 11.5148 8.65265 11.7184 8.34357 11.8632C8.03586 12.008 7.69792 12.0804 7.32839 12.0804L7.33114 12.0819ZM7.41906 10.913C7.56605 10.913 7.70067 10.8798 7.82293 10.8119C7.94519 10.7441 8.05234 10.649 8.14438 10.5269C8.23504 10.4047 8.29549 10.2629 8.32433 10.1015L8.51803 9.08796C8.55375 8.90093 8.5455 8.73201 8.49605 8.58118C8.44659 8.43035 8.36554 8.30969 8.25427 8.21919C8.143 8.1287 8.00838 8.08344 7.8504 8.08344C7.71028 8.08344 7.57841 8.11814 7.45477 8.18902C7.33114 8.25991 7.22674 8.35645 7.13882 8.47862C7.0509 8.60079 6.99184 8.74256 6.96299 8.90395L6.76929 9.91751C6.73358 10.0985 6.73908 10.2644 6.78304 10.4198C6.82699 10.5736 6.90529 10.6943 7.01656 10.7818C7.12783 10.8692 7.26245 10.9115 7.42043 10.9115L7.41906 10.913Z" fill="#0F121D"/>
<path d="M4.63562 12.0929C4.99047 12.4757 5.39391 12.758 5.83121 12.9457C6.26705 13.1333 6.73232 13.2249 7.19908 13.2264C7.66583 13.2264 8.13112 13.1348 8.56695 12.9457C9.00425 12.758 9.40769 12.4757 9.76254 12.0929C9.77726 12.0764 9.80082 12.0764 9.81702 12.0914C9.8288 12.1019 9.83174 12.1184 9.82733 12.1319C9.65064 12.6454 9.26339 13.0868 8.79222 13.3825C8.31958 13.6798 7.75859 13.8329 7.20055 13.8329C6.64251 13.8329 6.08152 13.6798 5.60888 13.3825C5.13771 13.0883 4.75047 12.6469 4.57378 12.1319C4.56642 12.1124 4.57672 12.0899 4.59734 12.0824C4.61206 12.0779 4.62826 12.0824 4.6371 12.0929H4.63562Z" fill="#0F121D"/>
</svg>
