<svg width="12" height="13" viewBox="0 0 12 13" fill="none" xmlns="http://www.w3.org/2000/svg">
<path d="M10.1417 6.58998C10.0912 6.54369 10.0314 6.50704 9.9656 6.48211C9.8998 6.45718 9.82934 6.44447 9.75823 6.44471C9.68713 6.44494 9.61677 6.45811 9.55117 6.48346C9.48557 6.50882 9.42602 6.54586 9.37591 6.59248C9.32581 6.6391 9.28614 6.69438 9.25916 6.75517C9.23218 6.81595 9.21842 6.88105 9.21867 6.94675C9.21892 7.01245 9.23318 7.07746 9.26062 7.13806C9.28806 7.19867 9.32816 7.25369 9.37862 7.29998C9.83654 7.71859 10.2 8.21696 10.4481 8.76624C10.6961 9.31553 10.8237 9.90481 10.8236 10.5C10.8236 11.11 8.92403 12 5.95297 12C2.98192 12 1.08239 11.11 1.08239 10.5C1.08153 9.90874 1.20679 9.32313 1.451 8.77663C1.69522 8.23013 2.05361 7.73345 2.50568 7.31498C2.60647 7.2213 2.66305 7.09458 2.66305 6.96248C2.66305 6.83039 2.60647 6.70366 2.50568 6.60998C2.40428 6.51686 2.26712 6.46459 2.12415 6.46459C1.98118 6.46459 1.84402 6.51686 1.74262 6.60998C1.18797 7.11957 0.748336 7.72581 0.449205 8.39357C0.150073 9.06132 -0.0026015 9.7773 3.35355e-05 10.5C3.35355e-05 12.125 3.0685 13 5.95297 13C8.83744 13 11.9059 12.125 11.9059 10.5C11.908 9.77261 11.753 9.05216 11.4501 8.38079C11.1472 7.70941 10.7024 7.10061 10.1417 6.58998Z" fill="#6A6F84"/>
<path d="M5.95303 7C6.70227 7 7.43469 6.79473 8.05766 6.41014C8.68063 6.02556 9.16618 5.47893 9.4529 4.83939C9.73962 4.19985 9.81464 3.49612 9.66847 2.81718C9.52231 2.13825 9.16151 1.51461 8.63172 1.02513C8.10192 0.535644 7.42692 0.202301 6.69208 0.0672531C5.95723 -0.0677952 5.19554 0.00151649 4.50333 0.266423C3.81113 0.53133 3.21948 0.979933 2.80323 1.55551C2.38697 2.13108 2.16479 2.80777 2.16479 3.5C2.16479 4.42826 2.56391 5.3185 3.27434 5.97487C3.98478 6.63125 4.94833 7 5.95303 7ZM5.95303 1C6.4882 1 7.01136 1.14662 7.45634 1.42133C7.90132 1.69603 8.24814 2.08648 8.45294 2.54329C8.65774 3.00011 8.71133 3.50277 8.60692 3.98773C8.50251 4.47268 8.2448 4.91814 7.86638 5.26777C7.48795 5.6174 7.00581 5.8555 6.48092 5.95196C5.95603 6.04843 5.41197 5.99892 4.91753 5.8097C4.4231 5.62048 4.0005 5.30005 3.70317 4.88893C3.40585 4.4778 3.24715 3.99445 3.24715 3.5C3.24715 2.83696 3.53223 2.20108 4.03968 1.73223C4.54713 1.26339 5.23539 1 5.95303 1Z" fill="#6A6F84"/>
</svg>
